<svg xmlns="http://www.w3.org/2000/svg" viewBox="0 0 460.4 282.1" enable-background="new 0 0 460.4 282.1"><style type="text/css">.st0{stroke:#215ECC;stroke-width:2;stroke-miterlimit:10;}</style><path class="st0" d="M452.3 205.4h-91.1v-15.3h-31.3v51.1h31.2v-15.3h91.2v.6h-90.4v54.1h90.4c-.7.2-1.5.5-2.2.5h-88.9v-39.2h-32v-37.5h-39.2v-64h-119.2v63.9h-39.3v37.6h-32.1v39.3h-89c-.7 0-1.5-.3-2.2-.5h90.4v-54.1h-90.4v-.6h91.1v15.3h31.3v-51.1h-31.2v15.3h-91.2v-.6h90.4v-54.1h-90.4v-.6h91.1v39.1h32v14.3h38.6v-127.2h-38.4v14h-32v41.5h-91.3v-.6h90.4v-54.1h-90.4v-.6h91.1v13.1h31.3v-51.1h-31.2v17.5h-91.2v-.6h90.4v-54.1h-90.4l2.1-.4h89v37h32v37.5h39.2v64h119.2v-63.9h39.3v-37.6h32.1v-37.1h88.9c.7 0 1.5.3 2.2.5h-90.4v54.1h90.4v.6h-91.1v-17.5h-31.3v51.1h31.2v-13.1h91.2v.6h-90.4v54.1h90.4v.6h-91.1v-41.3h-32v-14.3h-38.6v127.2h38.4v-14h32v-39.3h91.3v.6h-90.4v54.1h90.4c.1.1.1.3.1.5z"/></svg>