<?xml version="1.0" encoding="utf-8"?>
<!-- Generator: Adobe Illustrator 18.1.1, SVG Export Plug-In . SVG Version: 6.00 Build 0)  -->
<svg version="1.1" id="Layer_1" xmlns="http://www.w3.org/2000/svg" xmlns:xlink="http://www.w3.org/1999/xlink" x="0px" y="0px"
	 viewBox="0 0 460.4 282.1" style="enable-background:new 0 0 460.4 282.1;" xml:space="preserve">
<style type="text/css">
	.st0{stroke:#215ECC;stroke-width:2;stroke-miterlimit:10;}
</style>
<g>
	<path class="st0" d="M452.3,205.4c-30.3,0-60.5,0-91.1,0c0-5.2,0-10.2,0-15.3c-10.6,0-20.9,0-31.3,0c0,17,0,33.9,0,51.1
		c10.3,0,20.7,0,31.2,0c0-5,0-10,0-15.3c30.5,0,60.9,0,91.2,0c0,0.2,0,0.4,0,0.6c-30.1,0-60.1,0-90.4,0c0,18,0,35.9,0,54.1
		c30.1,0,60.3,0,90.4,0c-0.7,0.2-1.5,0.5-2.2,0.5c-29.6,0-59.3,0-88.9,0c0-13,0-25.9,0-39.2c-10.7,0-21.2,0-32,0
		c0-12.6,0-24.9,0-37.5c-13.1,0-26,0-39.2,0c0-21.5,0-42.7,0-64c-39.8,0-79.4,0-119.2,0c0,21.1,0,42.4,0,63.9c-13.2,0-26.1,0-39.3,0
		c0,12.7,0,25,0,37.6c-10.8,0-21.2,0-32.1,0c0,13.2,0,26.3,0,39.3c-29.7,0-59.3,0-89,0c-0.7,0-1.5-0.3-2.2-0.5c30.1,0,60.1,0,90.4,0
		c0-18,0-35.9,0-54.1c-30.1,0-60.3,0-90.4,0c0-0.2,0-0.4,0-0.6c30.3,0,60.5,0,91.1,0c0,5.2,0,10.2,0,15.3c10.6,0,20.9,0,31.3,0
		c0-17,0-33.9,0-51.1c-10.3,0-20.7,0-31.2,0c0,5,0,10,0,15.3c-30.5,0-60.9,0-91.2,0c0-0.2,0-0.4,0-0.6c30.1,0,60.1,0,90.4,0
		c0-18,0-35.9,0-54.1c-30.1,0-60.3,0-90.4,0c0-0.2,0-0.4,0-0.6c30.3,0,60.5,0,91.1,0c0,13.1,0,26,0,39.1c10.8,0,21.2,0,32,0
		c0,4.8,0,9.5,0,14.3c13,0,25.8,0,38.6,0c0-42.4,0-84.7,0-127.2c-12.7,0-25.4,0-38.4,0c0,4.6,0,9.2,0,14c-10.8,0-21.2,0-32,0
		c0,13.9,0,27.5,0,41.5c-30.6,0-61,0-91.3,0c0-0.2,0-0.4,0-0.6c30.1,0,60.1,0,90.4,0c0-18,0-35.9,0-54.1c-30.1,0-60.3,0-90.4,0
		c0-0.2,0-0.4,0-0.6c30.3,0,60.5,0,91.1,0c0,4.5,0,8.7,0,13.1c10.6,0,20.9,0,31.3,0c0-17,0-33.9,0-51.1c-10.3,0-20.7,0-31.2,0
		c0,5.8,0,11.4,0,17.5c-30.5,0-60.9,0-91.2,0c0-0.2,0-0.4,0-0.6c30.1,0,60.1,0,90.4,0c0-18,0-35.9,0-54.1c-30.1,0-60.3,0-90.4,0
		C8.9,1.4,9.6,1,10.3,1C40,1,69.6,1,99.3,1c0,12.2,0,24.4,0,37c10.7,0,21.2,0,32,0c0,12.6,0,24.9,0,37.5c13.1,0,26,0,39.2,0
		c0,21.5,0,42.7,0,64c39.8,0,79.4,0,119.2,0c0-21.1,0-42.4,0-63.9c13.2,0,26.1,0,39.3,0c0-12.7,0-25,0-37.6c10.8,0,21.2,0,32.1,0
		c0-12.5,0-24.8,0-37.1c29.6,0,59.3,0,88.9,0c0.7,0,1.5,0.3,2.2,0.5c-30.1,0-60.1,0-90.4,0c0,18,0,35.9,0,54.1c30.1,0,60.3,0,90.4,0
		c0,0.2,0,0.4,0,0.6c-30.3,0-60.5,0-91.1,0c0-5.9,0-11.7,0-17.5c-10.6,0-20.9,0-31.3,0c0,17,0,33.9,0,51.1c10.3,0,20.7,0,31.2,0
		c0-4.3,0-8.5,0-13.1c30.5,0,60.9,0,91.2,0c0,0.2,0,0.4,0,0.6c-30.1,0-60.1,0-90.4,0c0,18,0,35.9,0,54.1c30.1,0,60.3,0,90.4,0
		c0,0.2,0,0.4,0,0.6c-30.3,0-60.5,0-91.1,0c0-13.8,0-27.5,0-41.3c-10.8,0-21.2,0-32,0c0-4.8,0-9.5,0-14.3c-13,0-25.8,0-38.6,0
		c0,42.4,0,84.7,0,127.2c12.7,0,25.4,0,38.4,0c0-4.6,0-9.2,0-14c10.8,0,21.2,0,32,0c0-13.1,0-26,0-39.3c30.6,0,61,0,91.3,0
		c0,0.2,0,0.4,0,0.6c-30.1,0-60.1,0-90.4,0c0,18,0,35.9,0,54.1c30.1,0,60.3,0,90.4,0C452.3,205,452.3,205.2,452.3,205.4z"/>
</g>
</svg>
