<?xml version="1.0" encoding="utf-8"?>
<!-- Generator: Adobe Illustrator 18.1.1, SVG Export Plug-In . SVG Version: 6.00 Build 0)  -->
<svg version="1.1" id="Layer_1" xmlns="http://www.w3.org/2000/svg" xmlns:xlink="http://www.w3.org/1999/xlink" x="0px" y="0px"
	 viewBox="0 0 165.2 365.5" style="enable-background:new 0 0 165.2 365.5;" xml:space="preserve">
<style type="text/css">
	.st0{fill:#754107;}
	.st1{fill:#ED8A5F;}
	.st2{fill:#4C2803;}
	.st3{fill:#2A98EA;}
	.st4{fill:#C97557;}
	.st5{fill:#2889C6;}
	.st6{fill:#FFFFFF;}
	.st7{fill:#633609;}
	.st8{fill:#FF4444;}
	.st9{fill:#020202;}
</style>
<path class="st0" d="M45.8,235.1c0,0,46.7,10.3,69.3-2.7c0,0-5.3,10.3,5.7,33.7c0,0,30.5,58.2,12.5,69.6c0,0-27.1,5.1-32.8,1.8
	c0,0-16-20.7-2.3-69c0,0-2-10.7-13.7-9.7c0,0-15.7,4-5.7,24c0,0,14,34.7,4.7,50.7l-33.7,1.7c0,0-22.2-19.6-4.7-54.7
	C48.8,273.1,45.8,235.1,45.8,235.1z"/>
<path class="st1" d="M141.3,159.6c0,0,1.8,28.8-0.4,32.2c-2.2,3.4-9.6-2.9-9.6-2.9s-3.6-25.9-3.6-26.6"/>
<path class="st2" d="M83.5,333.5v31.7H71.8v-10c0,0-20,9.3-31,8.3c0,0-19-3.3-21.7-17.3c0,0,3.3-4.3,10.3-0.3c0,0,21.7,5,20.3-10.7
	L83.5,333.5z"/>
<path class="st2" d="M98.8,333.8v31.7h12v-10c0,0,20.6,9.3,32,8.3c0,0,19.6-3.3,22.3-17.3c0,0-3.4-4.3-10.7-0.3c0,0-22.3,5-21-10.7
	L98.8,333.8z"/>
<path class="st1" d="M12.7,177.5c0,0,3.7,28.7,6.8,31.7s10.3-4.5,10.3-4.5s-1-26.2-1.2-26.8"/>
<path class="st3" d="M45.3,153l0.2,82.2c0,0,42.2,13,69.3-2.7l-10.3-84l12,13c0,0-8.5,4.8-4.2,8.7c0,0,8.5,1.8,40-12.7
	c0,0,4.5-9.2-11.2-7.3c0,0-13.3-32.8-30.5-40.3c0,0,1.7,13.2-1.2,13.7c0,0-2.2-9-1.8-11.2c0,0-25.7,23-30,34.5
	c0,0-5.1-20.9-30.1-40.6c0,0,0.3,15.4-0.7,16.2c0,0-2.1-5-1.8-12.6c0,0-19,17.3-34.4,59c0,0-13.3,2-9,9.2c0,0,22.3,6.7,38.7,1.8
	c0,0,2.8-6-4.8-6.8C35.5,173,38.7,157.5,45.3,153z"/>
<circle class="st0" cx="79.7" cy="152.8" r="2.5"/>
<circle class="st0" cx="79.7" cy="162.8" r="2.5"/>
<path class="st4" d="M50.4,105.7c0,0,9.5-5.4,10.3-5.3c0.8,0.1,34.2-1.6,34.2-1.6s10,4.2,11.3,6.9c2.3,4.6-23.4,25.6-23.4,25.6
	l-9.5,1.2l-22.5-26.3L50.4,105.7z"/>
<circle class="st0" cx="79.7" cy="172.8" r="2.5"/>
<circle class="st1" cx="25.6" cy="211.9" r="8.4"/>
<circle class="st1" cx="134.4" cy="195.4" r="8.4"/>
<path class="st5" d="M48.7,111.3c0,0,1.5,12.7-1.7,13.5c-3.2,0.8-10.2-13.7,0.3-27.5c0.3-0.4,0.2-0.3,0.2-0.3s28.6,28.5,30.1,35
	c0,0,23.3-27.3,36.8-31.3c0,0,7.3,1.5,0.8,17c0,0-3.3,7.5-5,8s-3.3-9.5-3.2-10.5c0.2-1-23.7,21.2-30,33.7
	C77.2,148.8,56,115.5,48.7,111.3z"/>
<polygon class="st1" points="46.9,62.8 46.9,88.6 66.9,108.5 90.7,108.5 111.5,87.7 111.5,56.9 46.7,55.1 "/>
<path class="st6" d="M73.3,83.7v11.5c0,0,18.5-6.4,21.5-12.4L73.3,83.7z"/>
<ellipse class="st7" cx="81.2" cy="43.1" rx="81.2" ry="17.8"/>
<ellipse class="st8" cx="83.8" cy="38.5" rx="30.1" ry="2.5"/>
<path class="st0" d="M53.7,38.5V6.6c0,0-0.4-17.1,29.2,4.3c1.8,1.3,17.3-5.3,20.2-9.5c0,0,13.5-12.8,10.8,37"/>
<path class="st9" d="M111.3,31.4H56.4c-1.5,0-2.8,1.2-2.8,2.8v4.6c0,1.5,1.2,2.8,2.8,2.8h54.9c1.5,0,2.8-1.2,2.8-2.8v-4.6
	C114.1,32.6,112.8,31.4,111.3,31.4z"/>
</svg>
