<?xml version="1.0" encoding="utf-8"?>
<!-- Generator: Adobe Illustrator 18.1.1, SVG Export Plug-In . SVG Version: 6.00 Build 0)  -->
<svg version="1.1" id="Layer_1" xmlns="http://www.w3.org/2000/svg" xmlns:xlink="http://www.w3.org/1999/xlink" x="0px" y="0px"
	 viewBox="0 0 378.3 461" style="enable-background:new 0 0 378.3 461;" xml:space="preserve">
<style type="text/css">
	.st0{fill:#8E3833;}
	.st1{fill:#F58250;}
	.st2{fill:#E06E46;}
	.st3{fill:none;stroke:#F58250;stroke-width:9;stroke-miterlimit:10;}
</style>
<polygon class="st0" points="188.7,177.2 4.6,177.2 96.6,88.6 188.7,0 280.7,88.6 372.7,177.2 "/>
<path class="st1" d="M367.8,461H10.4C4.7,461,0,456.3,0,450.6v-265c0-5.7,4.7-10.4,10.4-10.4h357.4c5.7,0,10.4,4.7,10.4,10.4v265
	C378.3,456.3,373.6,461,367.8,461z"/>
<path class="st2" d="M241.9,460h-96.6c-5.7,0-10.4-4.7-10.4-10.4V318.2c0-5.7,4.7-10.4,10.4-10.4h96.6c5.7,0,10.4,4.7,10.4,10.4
	v131.3C252.3,455.3,247.6,460,241.9,460z"/>
<circle class="st0" cx="231.2" cy="395.3" r="11.4"/>
<path class="st0" d="M112.2,301.2H44.7c-6.6,0-12-5.4-12-12v-67.5c0-6.6,5.4-12,12-12h67.5c6.6,0,12,5.4,12,12v67.5
	C124.2,295.8,118.8,301.2,112.2,301.2z"/>
<path class="st0" d="M337.2,301.2h-67.5c-6.6,0-12-5.4-12-12v-67.5c0-6.6,5.4-12,12-12h67.5c6.6,0,12,5.4,12,12v67.5
	C349.2,295.8,343.8,301.2,337.2,301.2z"/>
<line class="st3" x1="302.6" y1="209.4" x2="302.6" y2="301.4"/>
<line class="st3" x1="349.6" y1="251.9" x2="257.6" y2="251.9"/>
<line class="st3" x1="77.6" y1="209.4" x2="77.6" y2="301.4"/>
<line class="st3" x1="124.6" y1="251.9" x2="32.6" y2="251.9"/>
<g>
</g>
<g>
</g>
<g>
</g>
<g>
</g>
<g>
</g>
<g>
</g>
</svg>
