<svg xmlns="http://www.w3.org/2000/svg" viewBox="0 0 378.3 461" enable-background="new 0 0 378.3 461"><style type="text/css">.st0{fill:#8E3833;} .st1{fill:#F58250;} .st2{fill:#E06E46;} .st3{fill:none;stroke:#F58250;stroke-width:9;stroke-miterlimit:10;}</style><path class="st0" d="M188.7 177.2h-184.1l92-88.6 92.1-88.6 92 88.6 92 88.6z"/><path class="st1" d="M367.8 461h-357.4c-5.7 0-10.4-4.7-10.4-10.4v-265c0-5.7 4.7-10.4 10.4-10.4h357.4c5.7 0 10.4 4.7 10.4 10.4v265c.1 5.7-4.6 10.4-10.4 10.4z"/><path class="st2" d="M241.9 460h-96.6c-5.7 0-10.4-4.7-10.4-10.4v-131.4c0-5.7 4.7-10.4 10.4-10.4h96.6c5.7 0 10.4 4.7 10.4 10.4v131.3c0 5.8-4.7 10.5-10.4 10.5z"/><circle class="st0" cx="231.2" cy="395.3" r="11.4"/><path class="st0" d="M112.2 301.2h-67.5c-6.6 0-12-5.4-12-12v-67.5c0-6.6 5.4-12 12-12h67.5c6.6 0 12 5.4 12 12v67.5c0 6.6-5.4 12-12 12zm225 0h-67.5c-6.6 0-12-5.4-12-12v-67.5c0-6.6 5.4-12 12-12h67.5c6.6 0 12 5.4 12 12v67.5c0 6.6-5.4 12-12 12z"/><path class="st3" d="M302.6 209.4v92m47-49.5h-92m-180-42.5v92m47-49.5h-92"/></svg>