<?xml version="1.0" encoding="utf-8"?>
<!-- Generator: Adobe Illustrator 18.1.1, SVG Export Plug-In . SVG Version: 6.00 Build 0)  -->
<svg version="1.1" id="Layer_1" xmlns="http://www.w3.org/2000/svg" xmlns:xlink="http://www.w3.org/1999/xlink" x="0px" y="0px"
	 viewBox="0 0 54.8 83.8" style="enable-background:new 0 0 54.8 83.8;" xml:space="preserve">
<style type="text/css">
	.st0{fill:#F0C995;}
	.st1{fill:#ED3A30;}
</style>
<path class="st0" d="M51.4,78.1l-0.4,0.3c-0.2,0.2-0.6,0.1-0.7-0.2L36.3,56.3c-0.2-0.2-0.1-0.6,0.2-0.7l0.4-0.3
	c0.2-0.2,0.6-0.1,0.7,0.2l13.9,21.9C51.7,77.6,51.6,77.9,51.4,78.1z"/>
<path class="st1" d="M36.2,56.3l1.4-0.9c0.9-0.5,1.1-1.7,0.6-2.5L7.5,4.6C7,3.7,5.9,3.5,5,4L3.6,4.9C2.7,5.5,2.5,6.6,3,7.5
	l30.7,48.3C34.2,56.6,35.4,56.8,36.2,56.3z"/>
<g>
</g>
<g>
</g>
<g>
</g>
<g>
</g>
<g>
</g>
<g>
</g>
</svg>
